# xmcd CD database file
#
# Track frame offsets:
#	150
#	23850
#	47530
#	71117
#	100723
#	117884
#	139176
#	154171
#	183427
#
# Disc length: 2579 seconds
#
# Revision: 0
# Processed by: cddbd v1.5.1PL0 Copyright (c) Steve Scherf et al.
# Submitted via: CDex 1.51
#
DISCID=750a1109
DTITLE=ハードロマンティック - New Life
DYEAR=1900
DGENRE=New Age
TTITLE0=Floating Lovers
TTITLE1=Cold Passion
TTITLE2=Falling Roses
TTITLE3=Feel the Flow
TTITLE4=Jewel
TTITLE5=So In Love
TTITLE6=Apres Un Reve Op.7-1-夢のあとに
TTITLE7=Air On the G-String - G線上のアリア(BlueMix)
TTITLE8=Sweet Slumber
EXTD=
EXTT0=
EXTT1=
EXTT2=
EXTT3=
EXTT4=
EXTT5=
EXTT6=
EXTT7=
EXTT8=
PLAYORDER=
